<?xml version="1.0" encoding="utf-8"?>
<!-- Generator: Adobe Illustrator 20.1.0, SVG Export Plug-In . SVG Version: 6.00 Build 0)  -->
<svg version="1.1" id="Layer_1" xmlns="http://www.w3.org/2000/svg" xmlns:xlink="http://www.w3.org/1999/xlink" x="0px" y="0px"
	 viewBox="0 0 219.1 119.2" style="enable-background:new 0 0 219.1 119.2;" xml:space="preserve">
<style type="text/css">
	.st0{fill:#2B1011;}
	.st1{fill:#279C88;}
	.st2{fill:#1B242C;}
	.st3{fill:#25323B;}
	.st4{fill:#6DA5A0;}
	.st5{fill:#137170;}
	.st6{fill:#A8684E;}
</style>
<title>tail</title>
<path class="st0" d="M202.3,118.3c0.2-0.3,0.5-0.7,0.7-1.1c1.8-3,2.9-6.4,3.5-9.9c1.3-7.8,3.3-15.5,2.1-23.6
	c-0.6-3.3-1.5-6.5-2.8-9.5c-2-4.9-3.6-9.8-6.8-14.2C193,52,185,47.7,175.4,45.9c-8.7-1.8-17.7-1.6-26.4,0.4
	c-2.2,0.5-4.3,1.1-6.3,1.9c-9.1,3.5-18.3,6.8-27.7,9.4c-2.8,0.8-5.5,2-8.4,2.9c-7,2-13.9,0.6-20.8-0.4c-2.2-0.3-1.5-1.7-0.6-2.8
	c2.3-2.8,4.8-5.4,6.9-8.3c3.8-5.1,6.7-10.5,6.5-17.2c-0.4-10.2-5.3-17-14.5-21c-7.3-3.2-14.9-3.9-22.7-4c-4.2-0.1-8.3-0.5-12-2.8
	l-1.6-0.2c-1.5,1.7-1,3.5,0,5.1c1.2,2.1,2.8,3.9,4.8,5.3c2.9,2,5.9,3.8,8.6,6c6.1,4.7,9.8,11.8,10,19.5c0.1,1.8,0.2,3.7,0.3,5.6
	c-1.9-4.7-4.1-9.3-6.6-13.7c-4-6.9-9.6-12.1-16-16.6c-6-4.2-12.7-4.5-19.7-3.1c-3.5,0.7-7,1.5-10.5,2.4c-3.9,1-7.7,1.3-11.3-0.9
	c-0.7-0.5-1.6-0.8-2.3-0.1c-0.7,0.7-0.5,1.5-0.3,2.3c1.4,4.7,4.8,7.6,9.2,9.3c3,1.2,6.1,2.1,9.3,2.7c6.3,1.2,11.7,3.9,15.5,9.2
	c2.2,3.1,4.6,6,6.1,9.5c1.7,3.8,4.7,6.9,8.5,8.8c3.8,2.1,7.8,3.8,12,5c4.2,1,8.1,3.1,11.4,6c4.5,4.2,9.8,7.6,15.5,10.1
	c6.8,2.8,14.1,2.6,21.3,1.7c6.3-0.8,12.7-0.7,19.1-1c4.9-0.1,9.8-0.6,14.6,0.1c4.3,0.5,8.6,1,12.6,3c4,2.1,6.9,5.7,8.1,10.1
	c0.9,2.9,0.4,6.1-1.4,8.6c-0.4,0.6-0.8,1.1-1.3,1.6c-0.5,0.5-1,1-1.5,1.5l2.1,0.9c0.6-0.4,1.1-0.9,1.6-1.5c0.2-0.3,0.4-0.6,0.6-1
	c0.5-1.1,1.6-2.4,2.8-2s1.8,2,2,3.4c0.2,0.8,0.1,1.7-0.3,2.4c-0.2,0.4-0.4,0.9-0.4,1.3l2.1,0.9c0.3-0.4,0.3-0.8-0.6-1.3
	c0.7-0.9-0.8-2.7,1.6-3.1c1.8-0.2,3.5-0.1,4.3,1.2c1.2,1.9,2.7,3.8,1.9,6.2l0.9,0.4c-0.1-1.4,2-1.6,2.2-2.9
	c-0.8-0.5-1.2,0.9-1.6,0.3c-0.5-0.9-0.7-1.9-0.6-3c0.2-0.7,1.4-0.9,2.4-0.9c1.3,0,2.5,0.6,3.2,1.7c1.5,1.8,1.9,5.1,1.3,7.8l1.2,0.5
	c0.6-1.1,0.8-2.3,0.5-3.6c-0.2-0.9,1.5-2.3,2.3-3.5c-1.5-0.4-1.4,1.3-2.8,1.7c0.7-1.3-1-2.4-0.3-3.2c1-1.4,2.7-2.3,4.4-2.3
	c1.8-0.2,3.4,0.9,4.1,2.6c1.3,3.1,0.7,6-0.7,8.8c-0.4,0.9-0.8,1.3-2.2,0.7c-1.2-0.6-2.5-0.8-3.8-0.5l7.2,3.1
	c-0.7-3.5,0.7-5.5,5.4-8.4c-1.4,3.2-2.7,6.1-4,9L202.3,118.3z M199.1,98.7c-0.3,0.3-0.9,1.3-0.9,0.1c0.2-3.2-1-6.4-0.4-9.6
	c-0.2,0.8-0.3,1.5-0.5,2.3c-0.9-0.9-0.7-2-0.9-3.2c-0.3,1-0.8,1.9-1.7,1.2c-1-0.7,0.4-1.2,0.6-1.7c0.5-0.9,1.4-1.1,2.6-1.1
	c3.9-0.1,7.2,4.9,6.9,8.5c-0.1,1.3-0.9,1.4-1.8,1.5c0.2-3.6,0.2-3.6-0.8-5C203.4,95.3,202.2,97.5,199.1,98.7L199.1,98.7L199.1,98.7
	L199.1,98.7L199.1,98.7z M180.2,61.9l-0.5,3.7c-2.2-0.4-2.8-3-5.3-3.5l1.5,1.7c-2.3,0.5-3.8-0.9-5.6-2.7c1.2,3.4-1.5,2-2.3,3.3
	c-0.1-4.9,1.8-7.5,5.9-7.8c2.6-0.1,5.1,1,6.9,2.9C181.9,60.8,181.5,61.5,180.2,61.9z M164.6,61.1c3.2-0.1,1.9,2,2.1,3.5
	c0.7,0.6,0.3,1.1-0.2,1.6c-1,1-1.5-0.6-2.3-0.5c-1.5,1.3-2.6,0-3.8-0.9c-0.3,0.9,0.9,2.2-0.6,2.3c-0.8,0-1.3-1-1.2-2
	c0.1-5.9,3.2-7.6,7.9-6.9c1.5,0.2,1.3,0.7,0.8,2C166.6,62.1,165.5,59.8,164.6,61.1z M152,60.9c1.6,0,3.2,0.1,4.2,1.6
	c-0.5,0.6-0.7,0-1-0.1c-1-0.3-2-0.3-3,0l2.9,0.6c-1.3,0.6-2.2,0.9-3,1.4c-2.5,1.2-3.8,0.5-4.4-2.1c-0.4-1.9,2.6-5.4,4.6-5.3
	c1.7,0.1,0,2.2,1.5,2.5c0.1,0,0.1,0.6,0.2,0.9c-0.4,0-0.7,0-1.1,0C152.4,60.4,151.9,60.3,152,60.9z M145.3,63.6
	c-2.1,0.4-4,1.8-5,3.7c-0.9,1.7-2.6,0.5-3.5,0.2s-2.9-0.4-2.3-2.4c1-3,3.6-4,6.2-5c1.6-0.6,1.6,1.2,2.3,1.7
	C143.8,62.4,144.5,63,145.3,63.6L145.3,63.6z M145.9,62.1c-5.1-3.5-5-5.4,0.5-8.3c0.2-0.1,0.5-0.3,0.7-0.5c1.5-1.5,2.6-0.8,3.6,0.6
	l0,0c1.7,0.3,1.7,0.3,2.7,1.3c-3,0-6,0.7-8.6,2.1c0.8-0.1,1.7-0.3,2.5-0.5c0.3-0.1,0.6,0.2,1,0.3c-0.2,0.3-0.2,0.8-0.5,0.9
	C145.8,58.8,146.9,60.9,145.9,62.1L145.9,62.1z M151,67.8c0.2-1.5,1.8-2.2,3.1-2.7c0.6-0.3,1.6-0.3,2.1-0.5c0.5-0.2,1.1-0.6,1.2,0.3
	c0,0.6,0.4,1.6-0.9,1.6c-0.6,0-1.2-0.4-1.8,0c1.2,0.9,3.3,0.7,3.9,2.7c-1.9-0.6-3.9-0.8-5.8-0.6l4.4,0.6c-1.1,1.4-2.5,0.7-4.4,0.9
	c1.4,0.4,1.9,0.5,2.5,0.7c-0.8,0.4-1.2,1.9-2,1C152.1,70.9,150.8,69.5,151,67.8L151,67.8z M177.9,74.2c-1.9-0.3-4.1,0.2-5.8-1.1
	c-0.6,1.5-2.6,1.8-3.1,1.3c-1.5-1.7-2.9-4-1.8-6.4c0.8-2.2,3-3.6,5.3-3.3c2.6,0.3,5,1.4,6.9,3.1c1.9,1.6,2,2.2,0,3.5l0,0
	C178.9,72.4,178.9,74.4,177.9,74.2L177.9,74.2z M181.5,67.7c-0.8-1.6-1.1-3.2,0-4.6c0.9-1.3,2.5-2,4-1.8c3.8,0.6,5.8,3.2,7.4,6.3
	c1,1.9-0.6,3.3-0.2,5.1c-2.1-2-4.2-3.3-7.1-3.2C184,69.9,182.4,69.6,181.5,67.7L181.5,67.7z M191.6,73.8c0.3,0.5,0.7,1.2-0.3,1.2
	c-1.7,0-2.1,1.7-2.8,2.5s-0.9,1.1-1.9,0.2c-1.2-1.1-2.6-2.3-4.6-2.2c-0.7-0.3-2,0.3-2.3-0.8c-0.2-1.1,0.7-1.9,1.6-2.6
	C184,70.1,189.6,71.1,191.6,73.8L191.6,73.8z M178.1,79.4c-0.5,0.8,0.8,1.2,0.2,1.6s-1-0.2-1.6-0.6c-0.7-0.4-0.6-0.6-0.3-1.2
	c0.8-1.7,2.6-2.8,4.5-2.7c2.1,0,3.4,1.5,4.1,3.3c0.2,0.4,0.8,0.9,0.3,1.4c-0.7,0.7-0.9-0.6-1.5-0.4c-0.2,0.6,0.2,1.8-0.9,1.3
	c-1.4-0.6-0.9,0-0.6,0.7c0.2,0.5,0.3,1.3-0.2,1.4c-0.8,0.3-1.1-0.5-1.3-1.1C180.4,81.6,179.5,80.3,178.1,79.4z M178,86.8
	c0.3-1.4,3.3-2,5-1c2,1.1,3.2,3.3,3.1,5.6c-0.2,1.6-2.3,0.2-3.5,0.4C180.8,92.2,177.6,88.6,178,86.8L178,86.8z M185,83.1
	c1.5-1,3.4-1.1,4.9-0.2c1.7,1.2,2.7,3.2,2.8,5.3c0,0.5-0.4,0.8-0.8,0.9c-1.9,0.5-3.1,1.8-4.6,3.7c0.7-2.8-0.3-5.7-2.5-7.5
	C183.6,84.4,183.9,83.8,185,83.1L185,83.1z M188.8,79.7c1.7-3.2,4.8-4.6,7.6-3.2c3.4,1.5,5.2,5.3,4.2,8.4c-0.3,0.8-0.4,1-1.3,0.9
	s-1.1-0.5-0.9-1.3c0.1-1.3,0.7-2.6-0.8-4c0.3,1.3,0.4,2.7,0.3,4c-0.2,1.5-1.6,0.7-2.2,1.1s-0.9-0.2-0.6-0.8
	c-1.7,0.2,0.4,2.5-1.5,2.7c0.6-1.8-1.2-3.4-0.4-5.2c-1.1,0.6-1.8,0.4-2.1-0.9c0-0.6,0-1.3,0.1-1.9c0-0.1-0.2-0.2-0.3-0.2
	c-0.2,0.8-0.4,1.5-0.6,2.3C190.2,80.4,187.6,81.6,188.8,79.7L188.8,79.7z M189.5,102.5c-0.4-3.3,1.3-5.9,1.7-8.9
	c-0.4,0.9-0.9,1.9-1.3,2.7c-2.4-2.7,0.3-4.3,1.4-5.5c1.1-1.2,3.1-0.5,4.3,0.7c1.8,1.7,1.5,7.8-0.3,9.7c-0.7-1.2,0.4-2.5-0.3-3.9
	c-0.2,0.9-0.3,1.7-0.5,2.3c-0.2,0.6,0.1,1.6-1.1,1.4c-1-0.2-0.5-1-0.5-1.6c0.1-2.5,0.2-2.5-0.8-4.3
	C193,98.7,192.6,101.2,189.5,102.5L189.5,102.5z M182.4,100.8c-1.3-1.9,0.3-4,0-5.7c-0.3-1.7,0.6-2,1.9-2c2,0,3,1.2,3.7,3
	c0.7,2.2,0.7,4.5,0.1,6.7c-2-0.3-2.6-1.1-1.4-2.9c0.7-0.9,0.6-2.2-0.2-3.1c0.9,1.9-1,3.1-1.1,4.8c-0.1,0.9-0.9,0.7-1.4,0.1
	c-0.9-0.6-1.3,1.2-2.3,0.5C181.9,101.7,182.2,101.2,182.4,100.8L182.4,100.8z M175.8,98.9c0.2-1.3,0.4-2.6,0.4-3.9
	c0-1.6,0.9-2.1,2.4-2.2c0.2,0,0.3,0,0.5,0c1.2,0.1,2.1,1.1,2,2.3c0,1.7-0.2,3.5-0.6,5.2c-0.1,0.7-0.8,1.2-1.4,0.9
	c-0.6-0.3-1.1-0.8-0.4-1.7c0.6-1,0.7-2.3,0.3-3.4c-0.3,0.8-0.2,1.8-0.6,2.4c-0.6,0.8-0.4,2.8-2.2,1.9c-0.8-0.4,1.1-0.9,0.6-1.7
	c-0.1-0.2-0.1-0.4-0.2-0.8c-0.2,0.5-0.4,0.9-0.6,1.3C176,99,175.9,98.9,175.8,98.9L175.8,98.9z M170.5,92.9c0.4-1.6,1.1-1.9,2.5-1
	c2.6,1.7,3,5.1,0.8,7.9c-0.9-2.2-0.9-2.2-2-3.3c-0.6-0.6-2.5,1.5-2-0.9C169.9,94.9,170.2,93.9,170.5,92.9L170.5,92.9z M169.8,88.5
	c-0.5-1,0.6-0.7,0.8-0.8c2.5-1.2,5.9-0.8,8,3.9c-1.6,0.1-2.9,1-4.2-0.4c-1.1-1.2-2.8-0.7-4.1-1.1C169.4,89.8,170,89,169.8,88.5
	L169.8,88.5z M169.4,85.8c-0.3-0.7-0.1-1.5,0.4-2c2.4-3.2,6.7-3.5,9.8,0.8c-2-0.5-2.4,1.7-3.9,1.7c-1.5-0.1-2.9-0.2-4.3-0.5
	c-0.1,0-0.2,0-0.3,0.1C170.4,86.3,169.7,86.4,169.4,85.8L169.4,85.8z M176.7,75.4c0.6,0.3,0.7,0.7,0.2,1s-0.8,1.4-1.7,0.6
	c-0.6-0.5-0.6-1.6-1.7-1.3c0.1,1.4,3,2.2,1.2,3.9c-2.3,2-4.2,0.6-6.2-2.1c0.3,2,2.1,2.6,1.5,3.6c-0.9,1.3-1-1.3-2.2-0.6
	c0.3,0.9,1.8,1.5,0.6,2.7c-0.3,0.4-0.5,1-1.2,0.5c-1-0.8-0.9-1.9-0.7-3C167.1,76.5,173,73.3,176.7,75.4z M162.1,78.9
	c-2-0.5-2.9-2.1-3.3-4.1c-0.7-3.2,1.3-6.8,4.3-7.3c2-0.4,3.4,0.9,2.6,2.2c-0.8,1.2-0.5,1.7,0.2,2.6c0.5,0.7,1.3,1.6,1.1,2.8
	c-0.7,0.5-0.9-0.9-1.8-0.4c0.3,0.9,2.2,1.2,1.1,2.6c-1.1,1.3-1.3-1.4-2.3-0.6c1.7,2.5,1.7,2.5,1.3,4.3
	C164.3,80,163.3,79.3,162.1,78.9L162.1,78.9z M157.3,76.5c-0.7,0.1-1.4,0-2.1-0.3c-0.4-0.3-0.5-1.1-0.6-1.6c1.7-0.4,1-3.1,3-3.3
	c0.4,1.6-2,3.1,0,4.7C157.6,75.9,157.4,76.5,157.3,76.5L157.3,76.5z M147.9,74.8c-0.9,0-0.6-0.7-0.5-1.2c0.1-1.2,0.7-2.3,1.7-2.9
	c0,0,0,0,0,0c0.5-0.3,1.1-0.1,1.4,0.4c1.1,1.6-1.4,0.1-0.9,1.3c1.4,0,2.7,0.5,3.8,1.4c-1.7,0.1-3.3-0.3-4.8-1.1
	c0.9,2.6,4.7,0,4.9,3.4C151.5,76.1,149.9,74.7,147.9,74.8L147.9,74.8z M142.7,73c1,0.7,2,1.3,3.1,1.9c-3-0.7-5.9,0.2-8.9-0.4
	C138.7,70.9,139.9,70.7,142.7,73z M141.7,68.5c-0.1-1.6,1.3-2.4,2.4-2.8c1.2-0.6,2.8-1.5,4.2,0.1c-1.3,0.2-2.5,0.3-4.3,0.6
	c1.1,0.2,1.5,0.3,1.9,0.4c1.3,0.3,3.2-1.2,3.8,0.5c0.7,1.7-1.7,1.7-2.4,2.8l0,0c-0.6,1-1,2.1-1.3,3.2
	C144.1,72.2,141.8,71.4,141.7,68.5L141.7,68.5z M128.5,73c-0.5-2.1,3.2-5.9,5.3-5.5c0.3,0.1,0.5,0.3,0.6,0.5
	c-0.4,1.6,0.4,0.9,1.2,0.8c0.7,0,1.4,0.1,2.1,0.2c0,0.4-0.4,0.4-0.6,0.5c-0.2,0.1-0.2,0.4-0.3,0.6c0.4,0.1,1.1,0,1.2,0.3
	c0.3,0.5-0.5,0.6-0.7,0.9c-0.6,0.7-2.1,0.2-2.2,1.3c-0.2,2-0.3,2.7-1.7,2.5C131.6,74.8,129.2,75.9,128.5,73L128.5,73z M127.1,73.8
	c-0.4,0.8-1.5,0.4-2,0.1c-1-0.4-2-0.8-3.1-1c-2.9-0.8-3.3-2.8-1.5-5.3c1.3-1.8,3.3-2.1,4.8-3.4c0.8-0.7,2.6,0.2,2.5,0.6
	c-0.3,1.7,0.9,1,1.5,1.3c0.4,0.2,1.1-0.1,1.5,0.6c-1.7,1.1-3.9,0.2-5.4,1.5c0.8,1.1,2.7-1.1,2.9,0.6s-1.8,1.3-3.6,1.8
	c1.4,0.6,2.5-0.4,2.7,0.8C127.6,72.2,127.5,73.1,127.1,73.8L127.1,73.8z M114.3,75.6c-0.4-3,1.4-4.6,3.9-5.8
	c-0.3,1.2,0.6,2.7-1.4,3.1l3.7,0.6c-1.5,0.5-3,0.7-4.6,0.6c2.6,1.5,5.3-0.5,7.7,0.4c0,0.2,0,0.5,0,0.7L114.3,75.6L114.3,75.6z
	 M107.4,75.6c1.7-0.9,3.3-0.1,4.8,0.3C110.7,75.5,109.1,77.1,107.4,75.6z M98.2,75.2c-0.2-1.8,1.9-2.7,3.3-3.6
	c0.7-0.3,1.5-0.5,2.3-0.4c0.5,0,1.3-0.2,1.3,0.6c0,1.1-1.1,0.2-1.6,0.8c2.2,0.7,2.8,2.4,1.5,3.7c-1,1.1-2.2,0.2-3.3,0.1
	C100.4,76.2,98.4,76.7,98.2,75.2L98.2,75.2z M88,71.7C87,71,86,70.2,84.9,69.5c1.2-1.7,2.7-1.1,4.1-0.9c1,0.1,1.5,0.9,1.2,1.7
	c-0.3,0.8,0.8,1.8,0,2.2C89.3,73,88.7,72,88,71.7L88,71.7z M77.4,63.4c0.4-0.8-1.2-1.1-0.3-1.9c0.1-0.1,0.4-0.1,0.5,0
	C78.3,62.1,77.8,62.8,77.4,63.4L77.4,63.4z M79.9,59.7c-1.3-0.7-0.9-1.3-0.9-1.8c0.3-3,1.5-5.8,2.1-8.7c1.4-6.7,2.3-13.6,0.8-20.5
	c-0.8-3.9-3.2-7.3-6.6-9.3c-0.9-0.6-2.2-1-2.5-2.2c-1.4-0.2-2.7-1-3.5-2.2c-0.9-1.9-3-2.4-4.7-4c3.6,0.7,6,3,8.8,4.5
	C85.1,21.9,90.1,33,84.6,46.3c0.2-1.9,0.3-3.4,0.4-4.9C84.5,47.9,80.6,53.2,79.9,59.7L79.9,59.7z M14,22.1c-0.7-1.3,0.2-1.3,0.8-0.9
	c1.1,0.6,2.4,0.9,3.6,1c4.1,0.5,8.2,1.1,12.3,1.6c4.1,0.7,7.6,3.1,9.6,6.7c2.7,4.5,4.8,9.4,7.7,13.8c2.7,4,5.9,7.9,10.9,9.6
	c3.7,1.3,7.2,3.2,10.9,4.9c-1.6,0.7-2.5-0.5-3.7-0.7c-5.1-1-9.9-3.2-14-6.3c-1.9-1.2-3.5-2.9-4.5-4.9c-2-4.5-4.7-8.6-7.8-12.4
	c-3-3.8-7-6-11.4-7.7c-3.5-1.4-7.3-1-10.9-3l2.9,0.1c0-0.1,0-0.3,0-0.3l-3.5-0.5l0,0c-0.1,0.1-0.2,0.2-0.3,0.3
	c-0.8,0.5-1.8,0.2-2.3-0.6C14.3,22.6,14.2,22.3,14,22.1L14,22.1z M11.5,18.8c2.9-0.5,4.9,1.2,7.3,1.3l-0.1,0c0,0,0.1,0,0.1,0
	c0.2-0.6,0.7-0.5,1.1-0.4c4.9,0.7,9.7,1.2,14.6,2c2.8,0.5,5.1,2.1,7.3,3.7c4,2.8,6.2,7,8.3,11.2c2.1,4,3.6,8.1,7.5,10.9
	c1.5,1,3.2,2.1,3.9,3.9c1,0.1,1.9,0.6,2.5,1.4l-2.2-0.1c1.4,0.6,2.8,1.2,4.3,1.7c1.4,0.6,3.6,0.5,3.8,2.8l0.1,0l0,0l0,0
	c1.2-0.3,2.1,0.4,2.8,1.2l0.1,0c0,0,0,0.1,0,0.1c1.4,0.3,2.6,1.3,3.2,2.6c-1.4-1.2-2.8-1.2-3.2-2.6l-0.1,0l0,0
	c-1.2,0.2-2-0.6-2.8-1.2c0,0-0.1,0-0.1,0l0,0l0,0c-1.6-0.6-3.3-1.2-4.9-2c-3.4-1.6-7.3-2.8-10.1-5.2c-5.6-4.9-8.8-11.6-12.1-18.1
	c-1.6-3-4-5.6-6.9-7.4c-3.7-2.6-8.4-1.8-12.4-3.4l0,0l0,0c0,0-0.1-0.1-0.2-0.1C19.2,22.2,15.6,20.2,11.5,18.8L11.5,18.8z M17.3,16.8
	c2.6-1.1,5.6-1.2,8.3-0.2c2.8,0.8,5.6,1.3,8.4,2.1c8.3,2.1,14.2,7,18.3,14.5c2.8,4.9,6.2,9.5,10.2,13.6c3.6,3.8,7.7,7.2,12.1,10.2
	c-2.6-0.2-3.8-1.9-5.5-2.8C59.8,49.5,53.5,42,49.3,32.6c-2.4-5.5-6.3-9.2-11.7-11c-6.3-2.1-12.9-3-19.5-3.7l0.1,0
	c0,0-0.1-0.1-0.1-0.1c-1.5,0.5-2.8,0-4.2-0.5c1.4-0.1,2.8,0.1,4.2,0.5c0-0.1,0-0.1,0-0.1L17.3,16.8L17.3,16.8z M36.6,13.4
	c4.8,0,7.7,1,9.8,3.2C43.1,15.1,39.7,14.8,36.6,13.4L36.6,13.4z M39.1,15c0,0.1,0.1,0.2,0.1,0.3l-2.7-0.3c0-0.1,0-0.2,0.1-0.3
	L39.1,15z M63.1,33.3c2.1,3.2,3.8,6.8,4.9,10.5c-3.9-4.6-6.3-9.9-9.9-14.7c-3.6-4.8-8.4-8-13.3-11.3c2,0,3.7-0.2,5.7,1.2
	C55.8,22.9,59.7,27.9,63.1,33.3L63.1,33.3z M72.4,52.3c-1.1-0.1-2,0-2.8-0.8c-3.4-3-6.6-6.3-9.6-9.7c-4.2-5.2-7-11.5-11.4-16.6
	c-1.2-1.3-2.6-2.5-4.1-3.4c-5.4-3.5-11.4-5.4-17.5-7.2c3.1,0.3,6.1,0.8,9.1,1.5c8.1,2.3,15.4,7,20.7,13.6
	c4.5,5.4,7.1,12.2,11.7,17.7C69.8,49,71.7,50.1,72.4,52.3z M52,9.1c-1,0.5-1.6,0-2-0.8c0,0,0.1-0.1,0.3-0.2C51,8.1,51.3,8.9,52,9.1z
	 M55.7,12.2c4.7,2.6,9.6,5.3,14.2,8.2c4,2.6,6.8,6.7,7.6,11.4c1.4,7.4-1.7,14.6-1.4,22c-1.1-1.6-3.4-2.5-3.1-4.6
	c0.3-3,0.3-6.1,0.1-9.2c-0.1-8.4-4-16.3-10.6-21.4c-3.7-3-8.2-5-11.5-8.6C53.1,9.6,54.2,11.4,55.7,12.2L55.7,12.2z M67.8,16.5
	c-2.8-0.3-4.3-2.7-6.4-4C63.8,13.4,66,14.7,67.8,16.5c0.1,0,0.2,0,0.2,0l0,0l0,0c1.4-0.1,2.1,1.2,3.1,1.8c3.6,2.3,7.4,4.7,9,8.9
	c1.3,4.1,1.8,8.4,1.4,12.7c-0.4,5.2-1.6,10.3-3.4,15.2c-0.7-2.4,0.5-4.5,0.8-6.7c-1.1-0.6-0.4,1.3-1.4,1c0.5-4,1.2-8,1.6-12
	c0.6-5.6-1.2-11.3-5.1-15.4c-1.8-2-4.6-3-5.8-5.5c0,0-0.1,0-0.1,0C67.9,16.5,67.9,16.5,67.8,16.5L67.8,16.5z M69.9,10.3
	c-0.9-1.7-3-0.4-4.2-1.5c13.2-0.5,24,11.7,24,18.5c-0.8,0.1-0.8-1.6-2-0.8c1.2,1.2,1.9,2.8,1.9,4.5c0.4-0.7,0.5-1.1,0.9-1.8
	c0.4,2.7,0.5,5.4,0.3,8.1c-0.1,3.4-2.1,5.9-3,8.9c0.2,1.2-0.4,2.5-1.4,3.2c-0.5,2.9-2.2,5.1-4.3,7.5c0.1-3.4,3.1-4.8,3.6-7.6
	c-0.8-0.5-0.4-1.3-0.2-1.7c2-3.3,2.2-6.9,2.4-10.5c0.6-6.3-1.7-12.5-6.2-16.8c-3.7-3.6-8.4-5.7-12.6-8.9c2.7,0.1,4.8,1.6,7.2,2.1
	C74.7,11.5,72.3,10.9,69.9,10.3c0,0.1,0,0.1,0,0.1C69.9,10.3,69.9,10.3,69.9,10.3c-1,0.7-1.8,0.2-3.1-0.2C67.9,9.8,69,9.9,69.9,10.3
	C70,10.3,70,10.3,69.9,10.3L69.9,10.3L69.9,10.3z M80.1,11.6c15.3,4.5,22.6,21.5,9.9,36.4c-0.1-1-0.6-2.2-0.2-2.9
	c1.8-3,2.1-6.4,2.3-9.7c0.5-6-1.1-12-4.4-17C85.9,15.6,83.2,13.9,80.1,11.6L80.1,11.6z M87.1,62.4c-1,2.1-2.8,0.7-4.3,1.3
	c2.4,0,3.6,1.3,4.2,3.3c-1.4,0.7-2.5-0.9-4.4-0.7c0.8,0.6,1.9,0.8,1.5,1.6c-0.7,1.1-1.4,0.2-2-0.2c-1-0.7-1.9-1.4-2.8-2.1
	C78.7,65,78.5,64,79,63.3c0.3-0.5,0.5-1.6,1.4-1.4C82.6,62.3,85,61.3,87.1,62.4L87.1,62.4z M98.7,64.4c-0.2,0.6-0.7,1-1.7,0.6
	c-1.8-0.7-3.6-1.3-5.5-1.7c1.3,1.1,2.9,1.7,4.6,1.9c-2.1,1.5-4-0.5-6.1-0.3c0.3,1,1.8,0.1,1.8,1.2c0,0.5-0.5,1.3-0.8,1.3
	c-1.6,0.2-2.3-1.2-3-2.2c-0.7-1-0.5-1.4,0.7-2c3-1.3,5.8,0.2,8.6,0.3C97.9,63.6,99,63.4,98.7,64.4L98.7,64.4z M95.4,66.9
	c0.8-0.1,2.4-0.9,2.6,0.5c0.2,1.6-1.7-0.1-2.1,0.9c1.2,0.6,3,0,3.8,1.6c-2.1,0.3-4.2-1.2-6.2,0.2c2.1-0.5,4.1,0.4,6.4,0.4
	c-1.6,1.8-3.1,0.2-4.4,0.8c0.3,0.5,0.7,0.4,1.2,0.5c0.5,0.1,1.4,0,1.1,0.8c-0.2,0.5-0.4,1.4-1.4,1.4c-1.5,0-4.8-2.3-4.8-3.7
	C91.5,67.9,93.3,67,95.4,66.9L95.4,66.9z M103.2,64.9c-0.4,0-0.7,0.4-1.1,0.6c2.4-0.9,2.5,1.7,4.7,2.5l-3.2-0.2
	c0.4,1,1.8,0.1,1.8,1.3c0,0.3-0.5,0.7-0.9,0.9c-1.5,0.5-4.7-1.4-5-3.1c-0.3-2.1,1.6-2.7,3-3.5c0.1-0.1,0.1-0.1,0.2-0.1
	c0.5-0.2,1,0.1,1.1,0.5C104,64.2,104,64.8,103.2,64.9L103.2,64.9z M111.3,63c-0.4,2.1-2.4,3.5-4.5,3.3c0,0-0.1,0-0.1,0
	c-0.9-0.3-1.4-1.3-1.1-2.3c0.2-0.9,3.9-2.7,5.4-2.4C111.9,61.8,111.4,62.5,111.3,63L111.3,63z M106.6,72.1c0,0,0-0.1-0.1-0.1
	c-0.6-1.2-0.1-2.6,1.1-3.2c1.2-0.6,2.4-2.4,4.1-1c-0.9,0.9-2.2,0.5-2.8,1.8c1.9-0.3,3.8-1.7,5.2,0.4c-1,0.4-2.4-0.5-3.1,1
	c1,0.3,2-0.9,3-0.1c-0.2,2.1-1.7,1.9-3.1,2.1c0.6,0.2,1.1,0.3,1.8,0.6C110.8,74.3,107.2,73.4,106.6,72.1L106.6,72.1z M117.3,60.5
	c1.7-0.6,1.3,1.5,2.1,2.3l0,0l0,0l0,0l0,0c0.8,0.9,2.1,0.3,3.1,1.2c-2.6,1-5.5-0.5-8,1.3c2.2,0.3,4.1-1,6.2,0
	c-1.4,1.8-2.6,4.2-5.1,3.7c-2-0.4-3.5-2.3-3.3-4.3C112.4,61.5,115.2,61.2,117.3,60.5L117.3,60.5z M128.9,55.5
	c-0.6,2.3-2.8,1.4-4,2.5c0.7,0.8,1.3-0.4,1.6-0.1c-0.2,1.3-0.3,2.6-0.5,3.8c-0.1,0.5,0,1.2-0.9,1.1c-1.4-0.3-2.8,0-4.2-0.9
	s-1.6-3.1-0.1-3.5C123.5,57.6,126,56,128.9,55.5L128.9,55.5z M127.4,61.1c0-2.3,1.7-4.2,4-4.5c1.4-0.3,2.1,1.1,3,2l0,0l0,0l0,0
	l4.1,0.6c-2.5,0.8-3.5,3.8-6.7,3.8c2.5,0.6,1.6,1.9,1.4,2.8C130.2,65.4,127.6,64.1,127.4,61.1L127.4,61.1z M138.9,53.9
	c1.2,0.5,2.8,0.1,2.8,1.3c0,1.4-1.6,0.4-2.4,0.9c0.3,0.8,2-0.1,1.8,1.4c-0.1,0.5-0.3,0.8-0.9,0.7c-1.5-0.2-3.1-0.5-4.6-0.8
	c-1.1-0.3-1.8-1.3-1.8-2.4c0.1-1,1.2-1.4,2-1.7c0.8-0.4,1.7-0.6,2.5-0.8c0.5-0.1,1.2-1.1,1.6-0.1C140.5,53.1,139.7,53.5,138.9,53.9z
	 M143.4,53.5c-0.7,0.1-1.3-0.3-1.4-1c-0.1-0.7-0.4-1.4,0.8-2c1.7-0.9,3.6-1.5,5.5-1.7C148.2,50.6,145.2,53.5,143.4,53.5z
	 M157.5,47.3c-0.5,1.3,1.6,2.3,0.6,3.5c-1.2,1.2-2.5,2.3-3.9,3.3c-1.2-1.1-2.9-1.2-3.8-2.6c-0.4-0.5-1.1-1-0.8-1.9
	c0.3-0.8,7-3,7.7-2.5C157.4,47.1,157.5,47.2,157.5,47.3L157.5,47.3z M160.7,46.4c2.8,0.7,5.7-0.4,8.7,0.7c-2.2,2.4-4.3,0.5-6.5,0
	c0.9,1.9,2.8,1.2,4.1,2c-0.2,0.3-0.4,0.8-0.7,0.9c-2,0.7-4-0.5-6.1-0.1c-0.5,0.1-1.3-1.2-1-2.3C159.4,46.8,159.9,46.2,160.7,46.4
	L160.7,46.4z M157.8,52.7c2.2-1.7,6.2-1.8,8.1-0.5c-0.7,0.4-1.3-1-2,0l2.9,1.7c-2.9,0.7-5.2-0.6-7.5-0.1c1.8,0.4,3.6,0.6,5.4,0.9
	c0.9,0.1,1.9,0,2,1.3c0,0.3,0.4,0.8,0.1,1c-0.8,0.4-1.5,0-2.3-0.4c-2.4-1.2-5-1.7-7.7-1.6c2.3,1.1,4.5,0.2,5.8,1.9
	c-1.8,1.1-3.6,0.4-5.5-0.1l2.3,1.4c-0.8,1.2-2,0.2-3.1,0.6c0.5,0.8,2.2-0.1,1.8,1.6c-0.1,0.4,0.1,1.1-0.5,1.1c-1,0-1.2-1.1-1.7-1.6
	c-0.4-0.5-0.7-1-0.9-1.7C154.5,55.6,156.1,54,157.8,52.7L157.8,52.7z M179.1,51.1c-0.3,0-0.9,0.1-0.3,0.5c1.6,1,0.7,2.3,0.6,3.5
	c-0.1,0.6,0.7,1.3-0.1,1.6c-0.7,0.1-1.4-0.1-1.9-0.7c-1.5-1.5-3.3-2.6-5.4-3.1l3.7,2.7l-2.8-0.4l0,0c-1,1-2.6,0.4-3.5,1.4
	c-0.5,0.6-0.7,0-1-0.3c-2.1-3.2-0.4-6.6,3.1-8c2.8-1.1,4.9,0.2,7.3,0.6c0.5,0.1,1.5-0.2,1.4,0.8C180.2,50.3,180.4,51.2,179.1,51.1
	L179.1,51.1z M190.4,54.6c1,1.1-0.3,4.2-0.5,6.4c0,0-0.2,0.1-0.2,0.1c-1.1-1.4-1.8-3.1-3.7-3.8l2.9,4c-1.7-0.4-3.1-1.4-4.2-2.8
	c-0.4,0.5,0.5,1.2-0.1,1.5s-1.1-0.2-1.6-0.7c-2.2-2.4-2.9-5.8-1.8-8.9c0.3-0.7,0.8-0.7,1.3-0.5C185.2,51.4,188.4,52.5,190.4,54.6
	L190.4,54.6z M192.1,56c3.7,2.8,6.6,6.6,8.3,10.9c-2.2,0.9-2.7-0.9-3.8-1.6c0.2,0.9,0.4,1.7-0.9,2.2s-1.4-0.7-1.8-1.2
	C191.2,63,190.7,59.8,192.1,56L192.1,56z M205,78.4c0.6,1.3,0.3,1.8-1,1.9c-0.6,1-1.3,1.1-2,0.1c-0.7-0.8-1-1.9-0.9-3
	c0.1-0.7-0.5-1.6-0.7-1.3c-1.5,1.8-1.5-0.6-2.4-0.6l-0.7-0.1c-3.7-1-4.2-1.6-3.3-4.1c0.5-1.7,2-2.9,3.8-3c1.2,0,2.9-0.4,3.6,1.3
	C202.8,72.4,203.8,75.4,205,78.4L205,78.4z M206.2,82.6c0.7,4.4,1.6,8.8-0.1,13.2c0.3-3.9-0.6-7.1-4-9.2c-0.9-0.6-0.5-1.4-0.2-1.9
	c0.7-1.2,1.7-2.1,2.8-2.9C205.9,80.9,206.1,81.9,206.2,82.6L206.2,82.6z M206,98.5c-0.7,4.1,0.4,9.2-5.6,10.3
	c-0.3-1.9,0.6-3.6,1.8-5.5c-3,3.3-2.6-1.6-4.9-1.1c2.8-1.9,4.3-4.4,7.3-4.6C205.3,97.7,206.3,97.3,206,98.5L206,98.5z M187.3,111.9
	c0.2-0.5,0.3-1.1,0.2-1.6c-0.1,0.5-0.3,1-0.5,1.5L187.3,111.9L187.3,111.9z M183.8,110.4c0.4-0.4,0.8-0.8,1.2-1.3l-1.9,1
	L183.8,110.4L183.8,110.4z M175.6,106.9c0.3-0.3,0.5-0.6,0.6-1c-0.5,0.2-0.9,0.4-1.3,0.7L175.6,106.9L175.6,106.9z M170.3,104.7
	c0.2-0.3,0.4-0.6,0.4-1c0-0.3,0-0.7,0-1.3c-0.4,0.6-0.7,1.3-1,2L170.3,104.7L170.3,104.7z M168.2,103.8l-0.2-0.5
	c-0.1,0.1-0.1,0.2-0.2,0.3L168.2,103.8z"/>
<path class="st1" d="M62.5,18.6c6.6,5.1,10.5,13,10.6,21.4c0.2,3.1,0.2,6.1-0.1,9.2c-0.3,2.1,2,3,3.1,4.6c-0.4-7.5,2.8-14.7,1.4-22
	c-0.8-4.7-3.6-8.8-7.6-11.4c-4.6-2.9-9.4-5.6-14.2-8.2c-1.5-0.8-2.6-2.6-4.7-2.2C54.4,13.6,58.8,15.5,62.5,18.6z"/>
<path class="st2" d="M18.9,20L18.9,20L18.9,20L18.9,20l0.2,0.3c0.2,0.1,0.4,0.2,0.5,0.2c0.7,0.2,1.4,0.3,2.2,0.4c0.1,0,0.1,0,0.1,0
	c0.5,0,1,0.1,1.4,0.2l0.1,0l0.2,0c0.1,0,0.1,0,0.1,0l0,0c4,1.6,8.7,0.8,12.4,3.4c2.9,1.8,5.3,4.4,6.9,7.4
	c3.3,6.5,6.5,13.2,12.1,18.1c2.8,2.4,6.7,3.6,10.1,5.2c1.6,0.8,3.3,1.3,4.9,2c-0.2-2.3-2.4-2.2-3.8-2.8c-1.4-0.6-2.9-0.9-4.3-1.7
	c0.5-0.6-0.2-0.9-0.4-1.3c-0.8-1.9-2.5-2.9-3.9-3.9c-3.9-2.8-5.5-7-7.5-10.9c-2.2-4.2-4.4-8.4-8.3-11.2c-2.2-1.6-4.5-3.3-7.3-3.7
	c-4.8-0.8-9.7-1.3-14.6-2C19.4,19.6,19,19.5,18.9,20z"/>
<path class="st2" d="M70,57.3L70,57.3L70,57.3L70,57.3L70,57.3z"/>
<path class="st1" d="M44.5,21.8c1.5,0.9,2.9,2.1,4.1,3.4C53,30.3,55.7,36.6,60,41.8c3,3.4,6.2,6.7,9.6,9.7c0.9,0.8,1.8,0.7,2.8,0.8
	c-0.7-2.2-2.6-3.2-3.9-4.8c-4.6-5.5-7.2-12.2-11.7-17.7c-5.3-6.6-12.6-11.3-20.7-13.6c-3-0.7-6-1.2-9.1-1.5
	C33.1,16.4,39.1,18.3,44.5,21.8z"/>
<path class="st3" d="M86.4,49.3L86.4,49.3c0.6-1,1-2.1,1.4-3.2c0.9-3,2.9-5.6,3-8.9c0.1-2.7,0-5.4-0.3-8.1c-0.3,0.7-0.5,1.1-0.9,1.8
	c0-1.7-0.6-3.3-1.9-4.5c1.2-0.8,1.2,0.9,2,0.8c0-6.7-10.8-18.9-24-18.5c1.2,1.2,3.3-0.1,4.2,1.6c2.4,0.5,4.8,1.2,6.5,3.1
	c-2.4-0.5-4.5-1.9-7.2-2.1c4.2,3.2,8.9,5.3,12.6,8.9c4.5,4.4,6.8,10.6,6.2,16.8c-0.2,3.6-0.5,7.3-2.4,10.5c-0.3,0.4-0.6,1.2,0.2,1.7
	C85.9,49.5,86.1,49.5,86.4,49.3L86.4,49.3L86.4,49.3z M77.8,13.8c-0.3-0.1-0.6-0.2-0.9-0.3C77.2,13.6,77.5,13.7,77.8,13.8z"/>
<path class="st4" d="M14.1,22c0.5,0.5,1.2,0.9,1.9,0.9l0.1,0c0.3,0,0.7,0.1,1,0.2l0.1,0l3.5,0.5l0,0.4l-2.9-0.1
	c3.6,2,7.5,1.6,10.9,3C33,28.6,37,30.8,40,34.6c3.1,3.8,5.8,7.9,7.8,12.4c1.1,2,2.6,3.7,4.5,4.9c4.1,3.1,8.9,5.3,14,6.3
	c1.1,0.2,2,1.4,3.7,0.7c-3.8-1.7-7.3-3.7-10.9-4.9c-5.1-1.7-8.2-5.6-10.9-9.6c-2.9-4.3-5-9.3-7.7-13.8c-2-3.6-5.5-6-9.6-6.7
	c-4.1-0.5-8.2-1.1-12.4-1.6c-1.3-0.1-2.5-0.4-3.6-1C14.2,20.9,13.3,20.9,14.1,22z"/>
<path class="st4" d="M69.2,15.1c1.2,0.7,2.5,1.1,3.5,2.2c0.4,1.3,1.6,1.7,2.5,2.2c3.5,2,5.9,5.4,6.6,9.3c1.5,6.9,0.7,13.7-0.8,20.5
	c-0.6,2.9-1.8,5.7-2.1,8.7c-0.1,0.5-0.4,1.1,0.8,1.8c0.7-6.5,4.7-11.9,5.1-18.3c-0.1,1.5-0.2,3-0.4,4.9c5.4-13.3,0.5-24.4-11.3-30.7
	c-2.8-1.5-5.1-3.8-8.8-4.5C66.3,12.7,68.4,13.2,69.2,15.1z"/>
<path class="st5" d="M17.4,16.8l0.7,1l0,0c6.6,0.8,13.2,1.7,19.5,3.7c5.4,1.8,9.3,5.6,11.7,11c4.2,9.3,10.5,16.8,19.7,21.6
	c1.7,0.9,2.9,2.6,5.5,2.8c-4.4-2.9-8.4-6.3-12.1-10.2c-3.9-4.1-7.4-8.6-10.2-13.6c-4.1-7.5-9.9-12.4-18.3-14.5
	c-2.8-0.7-5.6-1.2-8.4-2.1C23,15.6,20,15.7,17.4,16.8z"/>
<path class="st5" d="M87.7,18.3c3.4,5,4.9,11,4.4,17c-0.2,3.3-0.5,6.7-2.3,9.7c-0.4,0.7,0.1,1.9,0.2,2.9
	c12.7-14.8,5.4-31.9-9.9-36.3C83.2,13.9,85.9,15.6,87.7,18.3z"/>
<path class="st1" d="M179.5,71.2c2.1-1.3,1.9-1.9,0-3.5c-1.9-1.8-4.3-2.9-6.9-3.1c-2.3-0.3-4.5,1.1-5.3,3.3
	c-1.1,2.5,0.3,4.7,1.8,6.4c0.5,0.5,2.5,0.2,3.1-1.3c1.7,1.5,3.8,1,5.8,1.2C178.9,74.4,179,72.3,179.5,71.2L179.5,71.2z M170.8,71.5
	c0.2,0.3,0.5,0.7,0.7,1C171.2,72.3,171,71.9,170.8,71.5L170.8,71.5z M179.1,70.2c0,0.2,0.1,0.3,0.1,0.5
	C179.1,70.6,179.1,70.4,179.1,70.2L179.1,70.2z"/>
<path class="st5" d="M195.5,114.3c-1.2-0.6-2.5-0.8-3.8-0.5l-1.5-0.7c0.6-1.1,0.8-2.3,0.5-3.6c-0.2-0.9,1.5-2.3,2.3-3.5
	c-1.5-0.4-1.4,1.3-2.8,1.7c0.7-1.3-1-2.4-0.3-3.2c1-1.4,2.7-2.3,4.4-2.3c1.8-0.2,3.4,0.9,4.1,2.6c1.3,3.1,0.7,6-0.7,8.8
	C197.3,114.5,196.9,115,195.5,114.3z"/>
<path class="st5" d="M179.6,55.1c0.2-1.2,1-2.5-0.6-3.5c-0.7-0.4-0.1-0.5,0.2-0.5c1.2,0.2,1-0.8,1-1.4c0.1-1-0.9-0.7-1.4-0.8
	c-2.4-0.4-4.5-1.7-7.3-0.6c-3.5,1.4-5.2,4.8-3.1,8c0.2,0.3,0.4,0.9,1,0.3c0.9-1,2.6-0.4,3.5-1.4l0,0l2.8,0.4l-3.7-2.7
	c2,0.5,3.9,1.5,5.4,3.1c0.5,0.5,1.2,0.8,1.9,0.7C180.1,56.3,179.3,55.6,179.6,55.1z M172.5,55c-0.2,0-0.4-0.1-0.6-0.3
	C172.1,54.8,172.3,54.9,172.5,55z"/>
<path class="st2" d="M67.9,16.4L67.9,16.4C67.9,16.5,68,16.5,67.9,16.4L67.9,16.4L67.9,16.4L67.9,16.4z"/>
<path class="st2" d="M78,55.1c1.8-4.9,3-10,3.4-15.2c0.4-4.3,0-8.6-1.4-12.7c-1.5-4.3-5.3-6.7-9-8.9c-1-0.6-1.7-1.9-3.1-1.8
	c1.2,2.5,4,3.5,5.8,5.5c3.9,4.1,5.8,9.8,5.1,15.4c-0.4,4-1,8-1.6,12c1,0.3,0.3-1.5,1.4-1C78.5,50.6,77.3,52.8,78,55.1z M79.4,45
	c-0.1,0.9-0.2,1.7-0.4,2.6C79.1,46.7,79.3,45.8,79.4,45L79.4,45z"/>
<path class="st3" d="M181.5,63.1c-1.1,1.4-0.7,3,0,4.6c0.9,1.8,2.5,2.1,4.1,2c2.9-0.1,5,1.1,7.1,3.2c-0.4-1.8,1.2-3.2,0.2-5.2
	c-1.7-3.2-3.7-5.7-7.4-6.3C184,61.2,182.4,61.8,181.5,63.1z"/>
<path class="st5" d="M200.7,84.7c1-3.1-0.9-6.8-4.2-8.4c-2.8-1.3-6,0.1-7.7,3.3c-1.1,2,1.4,0.8,1.5,1.8c0.2-0.8,0.4-1.5,0.6-2.3
	c0.1,0.1,0.4,0.2,0.3,0.2c-0.1,0.6-0.1,1.3-0.1,1.9c0.3,1.3,1,1.5,2.1,0.9c-0.8,1.8,1,3.4,0.4,5.2c1.9-0.2-0.3-2.5,1.5-2.7
	c-0.2,0.6,0,1.3,0.6,0.8c0.7-0.5,1.9,0.4,2.2-1.1c0.1-1.4,0-2.7-0.3-4c1.5,1.4,1,2.7,0.8,4c-0.1,0.8,0.1,1.2,0.9,1.3
	C200.2,85.7,200.4,85.5,200.7,84.7z M193.3,80.2c0.2,0.4,0.3,0.9,0.2,1.4C193.5,81.2,193.4,80.7,193.3,80.2z M196,79.6
	c-0.1,0.6-0.1,1.1-0.2,1.6c-0.1,1-0.2,1.9-0.4,2.8c0.2-0.9,0.4-1.9,0.4-2.8c0.1-0.6,0.1-1.3,0-1.9c0-0.1,0-0.2,0.1-0.1l0,0
	c0.2,0,0.4,0.2,0.1,0.1L196,79.6L196,79.6z"/>
<path class="st4" d="M168,64.5c0.7-1.3,3.5,0.1,2.3-3.3c1.7,1.8,3.3,3.2,5.6,2.7l-1.5-1.7c2.6,0.5,3.1,3,5.4,3.5l0.5-3.7
	c1.3-0.4,1.8-1.1,0.6-2.3c-1.7-2-4.3-3-6.9-2.9C169.8,57.1,167.8,59.6,168,64.5z"/>
<path class="st2" d="M158.7,74.7c0.5,2,1.3,3.6,3.3,4.1c1.3,0.4,2.1,1.3,3.1,2c0.4-1.7,0.4-1.7-1.3-4.3c1-0.8,1.2,2,2.3,0.6
	c1.2-1.4-0.8-1.7-1.1-2.6c1-0.6,1.1,0.8,1.8,0.4c0.2-1.2-0.6-2-1.1-2.8c-0.7-0.9-1.1-1.3-0.2-2.6c0.8-1.3-0.7-2.5-2.6-2.2
	C160.1,67.9,158,71.5,158.7,74.7z"/>
<path class="st1" d="M181.2,50.4c-1,3.1-0.4,6.5,1.8,9c0.5,0.5,1.1,1,1.6,0.7s-0.3-1,0.1-1.6c1,1.4,2.5,2.4,4.2,2.8l-2.9-4
	c1.9,0.7,2.7,2.4,3.7,3.8c0.1,0,0.2-0.1,0.2-0.1c0.3-2.2,1.5-5.3,0.6-6.4c-2-2.2-5.2-3.3-7.9-4.7C182,49.6,181.5,49.7,181.2,50.4z"
	/>
<path class="st4" d="M205,78.4c-1.3-3-2.3-6-3.5-8.9c-0.7-1.6-2.4-1.3-3.6-1.3c-1.8,0.1-3.3,1.3-3.8,3c-0.9,2.5-0.4,3.1,3.3,4.1
	c0.2-0.4,0.2-0.8,0-1.2c-0.1-0.4-0.4-0.8-0.6-1.2c0.3,0.3,0.4,0.7,0.6,1.2c0.1,0.5,0.3,0.9,0.6,1.3c0.8,0,0.9,2.5,2.4,0.6
	c0.2-0.3,0.8,0.6,0.7,1.3c-0.1,1.1,0.2,2.2,0.9,3c0.7,1.1,1.3,1,2-0.1C205.3,80.2,205.6,79.7,205,78.4z M202.8,76.1
	c0.5,1,0.9,2.1,1.1,3.2C203.6,78.2,203.2,77.2,202.8,76.1z M202.1,74.6c0,0.1,0,0.2,0.1,0.2c-0.1-0.1-0.2-0.3-0.3-0.4
	C201.9,74.4,202.1,74.4,202.1,74.6L202.1,74.6z M202.6,75.8L202.6,75.8L202.6,75.8c0-0.1-0.1-0.2-0.1-0.3
	C202.6,75.7,202.6,75.8,202.6,75.8L202.6,75.8z"/>
<path class="st4" d="M191.4,90.8c-1.2,1.4-3.8,2.9-1.4,5.6c0.4-0.8,0.9-1.8,1.3-2.7c-0.5,3-2.3,5.6-1.8,8.9c3.1-1.3,3.6-3.8,2.7-7.4
	c1,1.8,0.9,1.8,0.8,4.3c0,0.6-0.5,1.3,0.5,1.6c1.2,0.3,1-0.7,1.1-1.4s0.3-1.4,0.5-2.3c0.7,1.4-0.4,2.7,0.3,3.9c1.8-2,2.1-8,0.3-9.7
	C194.5,90.3,192.5,89.6,191.4,90.8z"/>
<path class="st1" d="M187.2,111.9c0.2-0.5,0.3-1.1,0.1-1.6c-0.1,0.5-0.3,1-0.5,1.5l-3-1.3c0.4-0.4,0.8-0.8,1.1-1.3l-1.9,1l-1-0.5
	c-0.1-1.4,2-1.6,2.2-2.9c-0.8-0.5-1.2,0.9-1.6,0.3c-0.5-0.9-0.7-1.9-0.6-3c0.2-0.7,1.4-0.9,2.4-0.9c1.3,0,2.5,0.6,3.2,1.7
	c1.5,1.8,1.9,5.1,1.3,7.8L187.2,111.9z"/>
<path class="st1" d="M205,95c0.3-3.7-3-8.6-6.9-8.5c-1.2,0-2.1,0.2-2.6,1.1c-0.3,0.5-1.6,1-0.6,1.7c1,0.8,1.5-0.2,1.7-1.2
	c0.2,1.2,0,2.3,0.9,3.2c0.2-0.8,0.4-1.5,0.5-2.3c-0.7,3.2,0.6,6.4,0.4,9.6c-0.1,1.3,0.5,0.3,0.8,0l0,0l0,0l0,0
	c3.1-1.2,4.3-3.4,3.1-7.1c1,1.5,1,1.5,0.8,5C204,96.4,204.8,96.3,205,95z M199.2,97.4c0-0.7,0.1-1.3,0.3-2
	C199.4,96.1,199.3,96.7,199.2,97.4L199.2,97.4z"/>
<path class="st5" d="M125.3,64.3c-1.5,1.3-3.5,1.7-4.8,3.4c-1.7,2.5-1.3,4.5,1.5,5.3c1.1,0.2,2.1,0.5,3.1,0.9c0.5,0.3,1.6,0.6,2-0.2
	c0.4-0.8,0.5-1.6,0.3-2.4c-0.3-1.1-1.3-0.2-2.8-0.8c1.8-0.5,3.9-0.1,3.6-1.8c-0.2-1.7-2.1,0.5-2.9-0.6c1.6-1.3,3.8-0.3,5.4-1.5
	c-0.4-0.6-1-0.4-1.5-0.6c-0.6-0.3-1.8,0.4-1.5-1.3C127.9,64.5,126.1,63.5,125.3,64.3z"/>
<path class="st4" d="M58,29.1c3.6,4.8,6,10.2,9.9,14.7c-1.1-3.7-2.7-7.2-4.8-10.5c-3.4-5.4-7.3-10.4-12.7-14.3
	c-2-1.4-3.7-1.2-5.7-1.2C49.7,21.1,54.5,24.3,58,29.1z"/>
<path class="st3" d="M157.8,52.7c-1.7,1.3-3.3,2.9-2.8,5.5c0.1,0.6,0.4,1.2,0.9,1.7c0.5,0.6,0.7,1.6,1.7,1.6c0.6,0,0.4-0.7,0.5-1.1
	c0.4-1.6-1.4-0.8-1.8-1.6c1.1-0.4,2.3,0.6,3.1-0.6l-2.3-1.4c1.8,0.4,3.6,1.1,5.5,0.1c-1.2-1.7-3.5-0.8-5.8-1.9
	c2.7-0.1,5.3,0.4,7.7,1.6c0.8,0.4,1.5,0.8,2.3,0.4c0.4-0.2,0-0.6-0.1-0.9c-0.1-1.3-1.2-1.2-2-1.3c-1.8-0.3-3.6-0.5-5.4-0.9
	c2.3-0.5,4.6,0.8,7.5,0.1l-2.9-1.7c0.7-1,1.3,0.4,2,0C164,50.8,160,50.9,157.8,52.7z"/>
<path class="st1" d="M166.6,64.6c-0.2-1.5,1.1-3.5-2.1-3.5c1-1.3,2.1,0.9,2.8-0.9c0.5-1.3,0.7-1.7-0.8-2c-4.8-0.7-7.8,0.9-7.9,6.9
	c0,1,0.5,2.1,1.2,2c1.5-0.1,0.3-1.4,0.6-2.3c1.2,0.9,2.2,2.2,3.8,0.9c0.8-0.2,1.3,1.4,2.3,0.5C166.9,65.7,167.3,65.2,166.6,64.6z
	 M165.7,64.3c-0.3-0.3-0.6-0.6-0.9-0.9C165.2,63.6,165.4,64,165.7,64.3L165.7,64.3z M163.6,65.4c-0.4-0.3-0.7-0.8-1.2-0.9
	C163,64.6,163.3,65,163.6,65.4L163.6,65.4z"/>
<path class="st5" d="M181.1,109.2c0.9-2.5-0.7-4.4-1.9-6.2c-0.8-1.3-2.5-1.5-4.3-1.2c-2.4,0.3-0.9,2.2-1.6,3.1c1,0.5,1,0.9,0.6,1.3
	l0.9,0.4c0.4-0.3,0.8-0.5,1.3-0.7c-0.1,0.4-0.3,0.7-0.6,1l1.5,0.6l0.8,0.4l1.2,0.5l0.8,0.4L181.1,109.2z M177.7,110.2L177.7,110.2
	L177.7,110.2L177.7,110.2L177.7,110.2L177.7,110.2z M176.2,109.5c0-0.1,0-0.1,0-0.2L176.2,109.5L176.2,109.5L176.2,109.5z"/>
<path class="st2" d="M200.3,67c-1.7-4.3-4.5-8.1-8.2-10.9c-1.5,3.7-1,7,1.7,10.3c0.4,0.5,0.7,1.7,1.8,1.2c1.1-0.5,1-1.3,0.9-2.2
	C197.6,66,198.1,67.9,200.3,67z M195.8,63.8c0.2,0.3,0.3,0.6,0.5,0.9C196.1,64.4,195.9,64.1,195.8,63.8L195.8,63.8z"/>
<path class="st3" d="M204.6,97.7c-3,0.2-4.5,2.7-7.3,4.6c2.3-0.6,1.8,4.4,4.9,1.1c-1.2,1.9-2.1,3.6-1.8,5.5c6.1-1.1,5-6.2,5.7-10.3
	C206.2,97.3,205.3,97.6,204.6,97.7z"/>
<path class="st4" d="M140.8,60.2c-2.6,1-5.3,2-6.2,5c-0.6,1.9,1.3,2,2.3,2.4s2.6,1.6,3.5-0.2c1-1.9,2.8-3.3,5-3.7
	c-0.8-0.6-1.5-1.2-2.2-1.7C142.3,61.4,142.4,59.6,140.8,60.2z"/>
<path class="st3" d="M138.4,59.1l-4.1-0.6l0,0l0,0l0,0c-0.9-0.9-1.6-2.3-3-2c-2.3,0.3-3.9,2.2-4,4.5c0.2,3.1,2.9,4.3,5.8,4.7
	c0.1-0.9,1.1-2.2-1.4-2.8C135,62.9,136,59.9,138.4,59.1z M133.9,58.6c-0.4,0-0.8,0.1-1.2,0.2C133,58.7,133.4,58.6,133.9,58.6
	L133.9,58.6z"/>
<path class="st1" d="M158.3,116.9l-0.1-0.1L158.3,116.9L158.3,116.9z"/>
<path class="st1" d="M181.4,72c-0.9,0.7-1.8,1.6-1.6,2.6c0.2,1.1,1.6,0.4,2.3,0.8c2-0.1,3.4,1.1,4.6,2.2c1,1,1.2,0.7,2-0.2
	s1.1-2.5,2.8-2.5c0.9,0,0.6-0.7,0.2-1.2C189.7,71,184.1,70.1,181.4,72z"/>
<path class="st3" d="M185,83.1c-1.1,0.8-1.4,1.3-0.2,2.3c2.2,1.8,3.2,4.7,2.5,7.5c1.5-1.9,2.7-3.2,4.6-3.7c0.5-0.1,0.8-0.5,0.8-0.9
	c0-2.1-1.1-4.1-2.8-5.3C188.4,82,186.5,82,185,83.1z"/>
<path class="st4" d="M122.4,63.9c-1.1-0.9-2.4-0.3-3.1-1.2l0,0l0,0l0,0l0,0l0,0l0,0c-0.7-0.8-0.3-2.8-2-2.2c-2,0.8-4.9,1-5,4.1
	c-0.2,2.1,1.3,3.9,3.3,4.3c2.5,0.5,3.6-1.9,5.1-3.7c-2.1-1-4,0.3-6.2,0C117,63.5,119.9,65,122.4,63.9z M118.7,62.8
	c-0.2,0-0.3,0-0.5,0C118.4,62.8,118.5,62.8,118.7,62.8L118.7,62.8z"/>
<path class="st1" d="M138,70.3c-0.1-0.2-0.7-0.2-1.2-0.3c0.1-0.2,0.1-0.4,0.3-0.6c0.2-0.1,0.5,0,0.6-0.5c-0.7-0.2-1.4-0.3-2.1-0.2
	c-0.8,0.2-1.6,0.8-1.2-0.8c-0.1-0.2-0.3-0.4-0.6-0.5c-2.1-0.4-5.8,3.4-5.3,5.5c0.7,2.9,3.1,1.9,4.9,2c1.4,0.2,1.5-0.5,1.7-2.5
	c0.1-1,1.6-0.5,2.2-1.3C137.5,70.9,138.3,70.8,138,70.3z M135.5,70.2c0.3-0.1,0.6-0.1,0.8-0.1L135.5,70.2L135.5,70.2z"/>
<path class="st2" d="M188.1,102.8c0.6-2.2,0.6-4.5-0.1-6.7c-0.7-1.8-1.6-3-3.7-3c-1.3,0-2.3,0.1-1.9,2c0.3,1.9-1.3,3.7,0,5.7
	c-0.2,0.4-0.4,0.9-0.6,1.3c1,0.7,1.4-1.1,2.3-0.5c0.5,0.6,1.4,0.8,1.4-0.1c0.1-1.7,1.9-2.9,1.1-4.8c0.8,0.8,0.9,2.2,0.2,3.1
	C185.5,101.7,186.1,102.5,188.1,102.8z M184.2,100.8c0.1-0.5,0.2-0.9,0.2-1.4C184.4,99.9,184.3,100.4,184.2,100.8L184.2,100.8z
	 M182.6,100.2c0.1-0.4,0.2-0.8,0.2-1.2C182.8,99.4,182.7,99.8,182.6,100.2L182.6,100.2z"/>
<path class="st5" d="M166.5,80.7c-0.2,1.1-0.3,2.2,0.7,3c0.7,0.5,0.9-0.2,1.2-0.5c1.1-1.2-0.4-1.8-0.6-2.7c1.2-0.7,1.4,1.9,2.2,0.6
	c0.6-1-1.2-1.7-1.5-3.6c1.9,2.6,3.9,4.1,6.2,2.1c1.8-1.6-1.1-2.4-1.2-3.9c1.1-0.3,1.2,0.8,1.7,1.3c0.9,0.8,1.3-0.3,1.7-0.6
	c0.4-0.3,0.3-0.7-0.2-1C173,73.3,167.1,76.5,166.5,80.7z"/>
<path class="st4" d="M149.6,49.5c-0.3,0.9,0.5,1.3,0.8,1.9c0.9,1.4,2.6,1.5,3.8,2.6c1.4-1,2.7-2.1,3.9-3.3c1-1.2-1.1-2.2-0.6-3.5
	c0-0.1-0.1-0.2-0.2-0.2C156.6,46.5,149.9,48.6,149.6,49.5z"/>
<path class="st1" d="M178,86.8c-0.4,1.8,2.8,5.3,4.6,5c1.2-0.2,3.3,1.2,3.5-0.4c0.1-2.3-1.1-4.5-3.1-5.6
	C181.3,84.8,178.3,85.5,178,86.8z"/>
<path class="st2" d="M153.3,55.3c-1.1-1-1.1-1-2.7-1.3l0,0c-1-1.5-2.1-2.1-3.6-0.6c-0.2,0.2-0.4,0.3-0.7,0.5
	c-5.4,2.8-5.5,4.7-0.4,8.2c1-1.1-0.1-3.3,1.9-4.1c0.3-0.1,0.3-0.6,0.5-0.9c-0.3-0.1-0.7-0.3-1-0.3c-0.8,0.3-1.6,0.5-2.5,0.5
	C147.4,56,150.3,55.3,153.3,55.3z M150.2,54.1c-0.4,0.1-0.8,0.1-1.2,0.1C149.4,54.2,149.8,54.1,150.2,54.1L150.2,54.1z"/>
<path class="st5" d="M152,60.9c-0.1-0.6,0.4-0.6,0.8-0.6c0.4,0,0.7,0,1.1,0c-0.1-0.3-0.1-0.9-0.2-0.9c-1.5-0.3,0.2-2.4-1.5-2.5
	c-1.9-0.1-4.9,3.4-4.6,5.3c0.5,2.7,1.9,3.3,4.4,2.1c0.9-0.4,1.8-0.8,3-1.4l-2.9-0.6c1-0.3,2-0.3,3,0c0.3,0,0.4,0.6,1,0.1
	C155.2,61,153.6,61,152,60.9z"/>
<path class="st5" d="M78.9,63.3c-0.5,0.7-0.3,1.7,0.4,2.3c0.9,0.7,1.8,1.5,2.8,2.1c0.6,0.4,1.4,1.3,2,0.2c0.5-0.8-0.6-1-1.5-1.6
	c1.9-0.2,3,1.4,4.4,0.7c-0.4-2-2.2-3.4-4.2-3.3c1.5-0.6,3.3,0.8,4.3-1.3c-2.2-1.1-4.6-0.1-6.8-0.5C79.4,61.7,79.2,62.7,78.9,63.3z"
	/>
<path class="st4" d="M169.8,83.8c-0.5,0.5-0.7,1.3-0.4,2c0.3,0.6,1.1,0.5,1.7,0.1c0.1,0,0.2-0.1,0.3-0.1c1.4,0.3,2.9,0.4,4.3,0.5
	c1.4,0,1.9-2.1,3.9-1.7C176.5,80.3,172.2,80.7,169.8,83.8z"/>
<path class="st2" d="M204.7,81.9c-1,0.9-2.2,1.6-2.8,2.9c-0.3,0.5-0.7,1.3,0.2,1.9c3.4,2.1,4.3,5.4,4,9.2c1.7-4.5,0.8-8.9,0.1-13.2
	C206.1,81.9,205.8,81,204.7,81.9z"/>
<path class="st3" d="M95.4,66.8c-2.1,0.2-3.9,1-3.9,3.5c0,1.3,3.3,3.7,4.8,3.7c1,0,1.1-0.9,1.4-1.4c0.3-0.8-0.6-0.6-1.1-0.8
	c-0.4-0.1-0.9,0-1.2-0.5c1.3-0.7,2.8,0.9,4.4-0.8c-2.3-0.1-4.3-1-6.4-0.4c2-1.4,4.2,0.1,6.2-0.2c-0.8-1.7-2.6-1-3.8-1.6
	c0.4-1.1,2.3,0.7,2.1-0.9C97.7,66,96.2,66.8,95.4,66.8z"/>
<path class="st1" d="M144,65.6c-1.1,0.5-2.4,1.2-2.4,2.8c0.1,2.9,2.4,3.7,4.5,4.9c0.2-1.1,0.6-2.2,1.3-3.2l0,0
	c0.6-1.1,3-1.1,2.3-2.8c-0.7-1.8-2.5-0.3-3.8-0.5l-1.9-0.4l4.3-0.6C146.9,64.1,145.3,65.1,144,65.6z"/>
<path class="st2" d="M170.3,104.6c0.2-0.3,0.3-0.6,0.4-0.9c0-0.3,0-0.7,0-1.3c-0.4,0.6-0.7,1.3-1,2l-1.3-0.6c0.1-0.4,0.2-0.7-0.2-1
	c-0.1,0.2-0.1,0.3-0.2,0.5l0,0c-0.1,0.1-0.1,0.2-0.2,0.3l-2.1-0.9c0.6-0.4,1.1-0.9,1.6-1.5c0.2-0.3,0.4-0.6,0.6-1
	c0.5-1.1,1.6-2.4,2.8-2c1.2,0.4,1.8,2,2,3.4c0.2,0.8,0.1,1.7-0.3,2.4c-0.2,0.4-0.4,0.9-0.4,1.3L170.3,104.6z"/>
<path class="st2" d="M176.4,79.1c-0.4,0.7-0.2,0.9,0.3,1.2c0.5,0.3,1,1.1,1.6,0.6c0.7-0.5-0.7-0.8-0.2-1.6c1.4,0.8,2.3,2.2,2.6,3.8
	c0.2,0.6,0.5,1.4,1.2,1.1c0.5-0.2,0.5-0.9,0.2-1.4c-0.3-0.7-0.7-1.3,0.6-0.7c1.2,0.5,0.8-0.7,0.9-1.3c0.6-0.1,0.8,1.1,1.5,0.4
	c0.5-0.6-0.1-1.1-0.3-1.5c-0.7-1.9-2-3.3-4.1-3.3C179,76.4,177.3,77.5,176.4,79.1z"/>
<path class="st1" d="M124.9,58c1.3-1.1,3.5-0.3,4-2.5c-2.9,0.4-5.4,2.1-8.1,2.9c-1.5,0.4-1.1,2.6,0.1,3.5c1.3,0.9,2.8,0.6,4.2,0.9
	c0.8,0.1,0.8-0.6,0.9-1.1c0.2-1.2,0.3-2.5,0.5-3.8C126.2,57.6,125.7,58.8,124.9,58z"/>
<path class="st3" d="M176.3,95.2c-0.1,1.3-0.3,2.6-0.5,3.8c0.1,0,0.2,0,0.4,0.1c0.2-0.4,0.4-0.7,0.6-1.3c0.1,0.4,0.1,0.7,0.2,0.8
	c0.5,0.9-1.4,1.4-0.6,1.7c1.7,1,1.6-1.1,2.2-1.9c0.4-0.6,0.2-1.6,0.6-2.4c0.4,1.1,0.3,2.4-0.3,3.4c-0.7,1-0.3,1.4,0.4,1.8
	c0.7,0.3,1.3-0.3,1.4-0.9c0.3-1.7,0.5-3.5,0.6-5.2c0-0.2,0-0.3,0-0.5c-0.2-1.2-1.3-2-2.5-1.8C177.2,93,176.3,93.5,176.3,95.2z"/>
<path class="st5" d="M138.4,52.3c-0.9,0.2-1.7,0.4-2.5,0.8c-0.9,0.3-2,0.6-2,1.7c0,1.1,0.7,2.1,1.8,2.4c1.5,0.4,3,0.6,4.6,0.8
	c0.5,0.1,0.8-0.1,0.9-0.7c0.2-1.5-1.5-0.5-1.8-1.4c0.8-0.5,2.4,0.5,2.4-0.9c0-1.2-1.7-0.7-2.8-1.3c0.8-0.4,1.5-0.8,1.1-1.6
	C139.6,51.3,138.9,52.3,138.4,52.3z"/>
<path class="st1" d="M113.9,71c-1-0.7-2,0.4-3,0.1c0.6-1.5,2.1-0.6,3.1-1c-1.4-2.2-3.3-0.7-5.2-0.4c0.6-1.4,2-0.9,2.8-1.8
	c-1.8-1.4-2.9,0.4-4.1,1c-0.1,0-0.1,0.1-0.1,0.1c-1.1,0.7-1.5,2.1-0.8,3.2c0.6,1.3,4.2,2.2,6.1,1.5c-0.7-0.2-1.3-0.4-1.8-0.6
	C112.2,72.9,113.8,73.1,113.9,71z M109,71.4c0.4-0.2,0.9-0.3,1.4-0.3C109.9,71.2,109.5,71.3,109,71.4z"/>
<path class="st3" d="M156.2,64.6c-0.7,0.2-1.4,0.2-2.1,0.5c-1.3,0.6-2.9,1.2-3.1,2.7c-0.2,1.7,1.1,3,2.3,4.1c0.9,0.9,1.3-0.6,2-1
	c-0.6-0.2-1.2-0.3-2.5-0.7c1.9-0.3,3.3,0.5,4.4-0.9l-4.5-0.6c2-0.3,4-0.1,5.8,0.6c-0.6-2.1-2.7-1.8-3.9-2.7c0.6-0.4,1.2,0,1.8,0
	c1.2,0,0.9-1,0.9-1.6C157.3,64,156.9,64.4,156.2,64.6z"/>
<path class="st4" d="M101.4,71.5c-1.4,0.9-3.5,1.8-3.2,3.6c0.2,1.5,2.3,1.1,3.6,1.2c1.1,0.1,2.3,1,3.3-0.1c1.3-1.4,0.7-3-1.5-3.7
	c0.5-0.6,1.6,0.3,1.6-0.8c0-0.8-0.8-0.6-1.3-0.6C103,71.1,102.1,71.2,101.4,71.5z"/>
<path class="st5" d="M170.7,87.7c-0.3,0.1-1.4-0.2-0.9,0.8c0.3,0.5-0.4,1.3,0.5,1.6c1.4,0.4,3-0.1,4.1,1.1c1.3,1.3,2.6,0.4,4.2,0.4
	C176.6,86.9,173.1,86.5,170.7,87.7z"/>
<path class="st1" d="M159.2,47.7c-0.3,1.1,0.5,2.4,1,2.3c2.1-0.4,4.1,0.8,6.1,0.1c0.3-0.1,0.4-0.5,0.7-0.9c-1.4-0.8-3.2-0.1-4.1-2
	c2.2,0.4,4.2,2.3,6.5,0c-2.9-1.1-5.8,0-8.6-0.8C159.9,46.2,159.4,46.8,159.2,47.7z"/>
<path class="st1" d="M173.8,99.9c2.2-2.8,1.8-6.2-0.8-7.9c-1.4-0.9-2.1-0.7-2.5,0.9c-0.2,0.9-0.5,1.9-0.7,2.9
	c-0.5,2.3,1.5,0.2,2,0.9C172.9,97.7,172.9,97.7,173.8,99.9z M171.9,96.2c0.1-0.3,0.1-0.6,0.2-0.9C172.1,95.7,172,95.9,171.9,96.2
	L171.9,96.2z"/>
<path class="st1" d="M103.8,63.5c-0.3-0.4-0.8-0.4-1.2-0.1c-1.4,0.8-3.3,1.4-3,3.5c0.3,1.7,3.5,3.7,5,3.1c0.4-0.1,0.9-0.6,0.9-0.9
	c0-1.1-1.4-0.2-1.8-1.2l3.2,0.2c-2.2-0.8-2.3-3.5-4.7-2.5c0.3-0.3,0.7-0.5,1.1-0.6c0.8-0.1,0.8-0.8,0.7-1.2
	C103.9,63.6,103.8,63.5,103.8,63.5z"/>
<path class="st4" d="M88.8,63.3c-1.2,0.5-1.5,0.9-0.7,2c0.8,1,1.4,2.4,3,2.2c0.3,0,0.8-0.8,0.8-1.3c0-1.1-1.5-0.2-1.8-1.2
	c2.1-0.2,4.1,1.7,6.1,0.3c-1.7-0.2-3.3-0.8-4.6-1.9c1.9,0.4,3.7,1,5.5,1.7c1,0.5,1.5,0.1,1.7-0.6c0.3-1.1-0.8-0.8-1.3-0.8
	C94.5,63.5,91.7,62,88.8,63.3z"/>
<path class="st1" d="M199,116.9c-0.7-3.5,0.7-5.5,5.4-8.4c-1.4,3.2-2.7,6.1-4,9L199,116.9z"/>
<path class="st2" d="M114.3,75.6l9.4-0.4c0-0.3,0-0.5,0-0.8c-2.4-0.8-5.1,1.2-7.7-0.4c1.5,0.1,3.1-0.1,4.6-0.6l-3.7-0.6
	c2-0.4,1.1-1.9,1.4-3.1C115.7,71.1,113.9,72.6,114.3,75.6z"/>
<path class="st5" d="M105.6,64c0,0,0,0.1,0,0.1c-0.2,1,0.3,1.9,1.3,2.2c2.1,0.2,4-1.2,4.4-3.3c0.1-0.5,0.6-1.3-0.2-1.5
	C109.6,61.3,105.8,63,105.6,64z"/>
<path class="st1" d="M142.8,50.5c-1.1,0.5-0.9,1.3-0.8,2c0.1,0.7,0.8,1.1,1.4,1c1.8,0,4.8-2.9,4.9-4.7
	C146.4,49.1,144.5,49.7,142.8,50.5z"/>
<path class="st3" d="M136.9,74.4c2.9,0.6,5.9-0.3,8.9,0.4c-1.1-0.5-2.1-1.2-3.1-1.8C139.9,70.7,138.7,70.9,136.9,74.4z"/>
<path class="st2" d="M150.5,71c-0.3-0.5-0.9-0.7-1.4-0.4c-1,0.6-1.7,1.7-1.7,2.9c0,0.5-0.2,1.2,0.6,1.2c1.9-0.1,3.5,1.3,5.6,1.3
	c-0.2-3.4-4-0.8-4.9-3.4c1.5,0.8,3.1,1.2,4.8,1.1c-1.1-0.9-2.4-1.4-3.8-1.4C149.1,71.1,151.6,72.6,150.5,71
	C150.5,71,150.5,71,150.5,71z"/>
<path class="st1" d="M84.9,69.5C86,70.3,87,71,88,71.7c0.7,0.4,1.3,1.3,2.1,0.9c1-0.6-0.3-1.3,0-2.2c0.4-0.9-0.2-1.6-1.2-1.7
	C87.6,68.4,86,67.8,84.9,69.5z"/>
<path class="st5" d="M46.4,16.6c-2.1-2.2-5-3.3-9.8-3.3C39.7,14.8,43.1,15.1,46.4,16.6z"/>
<path class="st1" d="M154.6,74.6c0.2,0.6,0.2,1.4,0.6,1.6c0.7,0.3,1.4,0.4,2.1,0.3c0.1,0,0.3-0.6,0.3-0.6c-2-1.5,0.4-3,0-4.7
	C155.5,71.5,156.3,74.1,154.6,74.6z"/>
<path class="st2" d="M23.5,21.2L23.5,21.2l0.1,0.1L23.5,21.2L23.5,21.2L23.5,21.2z"/>
<path class="st2" d="M11.5,18.8c4.1,1.4,7.8,3.4,12,2.4l0,0l0,0c-1.5-0.8-3.3-0.2-4.7-1.1l0,0l-0.1,0l0.1,0
	C16.4,19.9,14.4,18.3,11.5,18.8z"/>
<path class="st3" d="M82.1,56.7c2.2-2.4,3.8-4.6,4.3-7.5l0,0l-0.6-0.1C85.3,51.9,82.3,53.4,82.1,56.7z"/>
<path class="st2" d="M67.8,16.4c-1.9-1.7-4.1-3.1-6.4-4C63.5,13.8,65,16.1,67.8,16.4z"/>
<path class="st2" d="M67.9,16.5L67.9,16.5L67.9,16.5c0-0.1-0.1-0.1-0.1-0.1C67.9,16.4,67.9,16.5,67.9,16.5z"/>
<path class="st3" d="M107.4,75.6c1.7,1.5,3.3-0.1,4.8,0.3C110.7,75.5,109.1,74.7,107.4,75.6z"/>
<path class="st2" d="M72.7,17.2c-1-1.6-1.1-1.7-3.5-2.2C70.1,16.2,71.3,17,72.7,17.2z"/>
<path class="st0" d="M197.4,75.3l0.7,0.1c0.1-1.5-1-2.6-1.5-4C195.6,73,197.5,73.9,197.4,75.3z"/>
<path class="st2" d="M72.9,58.5C73,58.5,73,58.5,72.9,58.5L72.9,58.5L72.9,58.5z"/>
<path class="st2" d="M76.2,61.2c-0.6-1.3-1.8-2.3-3.2-2.6C73.4,59.9,74.8,60,76.2,61.2z"/>
<path class="st2" d="M18,17.9l0.1,0L18,17.9L18,17.9C18,17.8,18,17.9,18,17.9z"/>
<path class="st2" d="M18,17.9c-1.3-0.5-2.8-0.6-4.2-0.5C15.2,17.9,16.5,18.4,18,17.9z"/>
<path class="st3" d="M86.4,49.3L86.4,49.3L86.4,49.3c1-0.7,1.6-1.9,1.4-3.2C87,47,86.5,48.1,86.4,49.3z"/>
<path class="st2" d="M61.9,52.7l2.2,0.1c-0.6-0.8-1.5-1.3-2.5-1.4C61.6,51.8,61.8,52.3,61.9,52.7z"/>
<path class="st1" d="M36.5,15l2.7,0.3c0-0.1,0-0.2,0-0.3l-2.6-0.3L36.5,15z"/>
<path class="st2" d="M69.9,57.3L69.9,57.3C70,57.3,70,57.3,69.9,57.3L69.9,57.3L69.9,57.3z"/>
<path class="st2" d="M73,58.5L73,58.5L73,58.5L73,58.5z"/>
<path class="st2" d="M70.1,57.3c0.9,0.6,1.6,1.4,2.8,1.2C72.2,57.7,71.3,57,70.1,57.3z"/>
<path class="st3" d="M77.1,61.6c-0.9,0.7,0.6,1.1,0.3,1.9c0.4-0.6,0.9-1.3,0.2-1.9C77.4,61.4,77.3,61.5,77.1,61.6z"/>
<path class="st0" d="M17.2,23.2L17.2,23.2L17.2,23.2C17.2,23.2,17.2,23.1,17.2,23.2L17.2,23.2z"/>
<path class="st0" d="M14.5,22.9c0.8,0.4,1.7,0.5,2.6,0.2l0,0l0,0l0,0c-0.8-1.3-2.2-0.4-3.1-1C14.2,22.4,14.3,22.6,14.5,22.9z"/>
<path class="st2" d="M14.8,23.2c0.6,0.7,1.7,0.7,2.4,0.1l0,0l0,0l0-0.1l-0.1-0.1L16,23.1l-0.1,0l-1.4-0.2
	C14.6,23,14.7,23.1,14.8,23.2z"/>
<path class="st3" d="M69.9,10.2c0,0,0.1,0,0.1,0.1L69.9,10.2L69.9,10.2C69.9,10.2,69.9,10.2,69.9,10.2z"/>
<path class="st3" d="M66.8,10.1c1.3,0.3,2.1,0.8,3,0.2C68.9,9.9,67.8,9.8,66.8,10.1z"/>
<path class="st3" d="M50.1,8.3c0.4,0.8,0.9,1.3,2,0.8c-0.7-0.3-1-1.1-1.7-1C50.2,8.2,50,8.3,50.1,8.3z"/>
<path class="st0" d="M75.7,39.8l-1.2,9.1l-0.2,0l1.2-9.1L75.7,39.8z"/>
<path class="st0" d="M76.7,40.9l-1,7.6l-0.3,0l1-7.5L76.7,40.9z"/>
<path class="st0" d="M75.1,33l-1.2-3.5C75.1,30.2,75.6,31.7,75.1,33z"/>
<path class="st0" d="M18.8,19.9L18.8,19.9c0.2,0.2,0.5,0.4,0.8,0.5c0.7,0.3,1.4,0.4,2.2,0.4c0.1,0,0.1,0,0.1,0c0.5,0,1,0.1,1.4,0.2
	l0.1,0c0.1,0,0.1,0,0.2,0.1l0.2,0.1l-0.1,0l0,0l0,0c-1.4-1.3-3.2-0.6-4.8-1.2l-0.1,0L18.8,19.9z"/>
<path class="st0" d="M50.3,42.2c-0.1-1.1-1.2-1.6-1.2-3.3C50.5,40.8,50.5,40.8,50.3,42.2z"/>
<path class="st0" d="M61.3,40.6c-0.2,0.2-0.1,0.8-0.6,0.4c-0.8-0.8-0.5-1.5,0-2.6C61,39.3,62.4,39.6,61.3,40.6z"/>
<path class="st0" d="M76.5,13.4c1.2-0.1,2.3,0.2,3.2,1c-0.2,0.2-0.3,0.6-0.5,0.6c-1.1,0-1.7-1-2.6-1.4
	C76.6,13.5,76.6,13.4,76.5,13.4L76.5,13.4z"/>
<path class="st0" d="M26.7,17.9l-5.6-0.7C23,17.2,25.2,16,26.7,17.9L26.7,17.9z"/>
<path class="st0" d="M26.7,17.9l3.7,0.5C29.1,18.4,27.7,18.9,26.7,17.9L26.7,17.9z"/>
<path class="st0" d="M93,38.6c0.3,1.6,0.2,2.5-0.5,3.3L93,38.6z"/>
<path class="st0" d="M174.1,127.4L174.1,127.4L174.1,127.4L174.1,127.4z"/>
<path class="st0" d="M172.2,72.9c-1.9-0.1-2.1-2.2-3.5-2.9C170.2,70.4,171.5,71.5,172.2,72.9L172.2,72.9z"/>
<path class="st0" d="M179.5,71.3L179.5,71.3L179.5,71.3c-0.1,0-0.1,0-0.1,0.1L179.5,71.3z"/>
<path class="st0" d="M179.4,71.2c0.6-1.5-1.1-1.8-1.5-2.8C177.8,69.7,178.7,70.4,179.4,71.2z"/>
<path class="st0" d="M174.2,71.3c1,0.2,1.3,0.8,1.7,1.7C174.7,72.8,174.5,72,174.2,71.3z"/>
<path class="st0" d="M175.5,69.5c0.8,0.3,1.4,1,1.4,1.9C176.3,71,175.5,70.7,175.5,69.5z"/>
<path class="st0" d="M196.9,107.9c-0.7,1.1-1.1,2.5-2.5,3.1C195.1,109.8,195.4,108.4,196.9,107.9z"/>
<path class="st0" d="M172.9,55.2C172.9,55.2,172.9,55.2,172.9,55.2L172.9,55.2L172.9,55.2L172.9,55.2z"/>
<path class="st0" d="M170.3,53.8c0.5,0.9,1.5,1.4,2.5,1.3C172.2,54.3,171.3,53.8,170.3,53.8z"/>
<path class="st0" d="M78.9,48.4c0.3-2.5,0.7-5,1-7.5C79.7,43.4,80.1,46,78.9,48.4L78.9,48.4z"/>
<path class="st0" d="M190,69.1l-3.2-4C188.3,65.9,189.4,67.4,190,69.1z"/>
<path class="st0" d="M185.8,68c-0.8-1.1-1.6-2.2-2.4-3.3c1.3,0.6,2.3,1.7,2.9,3C186.1,67.8,186,67.9,185.8,68z"/>
<path class="st0" d="M195.2,84.7c-0.2-2.2,0.9-4.4,0.3-6.6C196.4,80.2,196.3,82.6,195.2,84.7L195.2,84.7z"/>
<path class="st0" d="M193.3,82.1c0-1.1-1-2.2,0.1-3.3C192.9,80,194.8,81,193.3,82.1L193.3,82.1z"/>
<path class="st0" d="M180.2,61.9c-0.6-0.7-1.5-1.2-1.2-2.5C179.7,60.2,180.7,60.7,180.2,61.9L180.2,61.9z"/>
<path class="st0" d="M179.2,64c-1-0.3-1.3-1.1-2-2.1C178.3,62,179.1,62.9,179.2,64z"/>
<path class="st0" d="M162.8,71.8c0.6,0.7,1.6,0.7,1.5,1.8C164.1,72.8,162.3,73.4,162.8,71.8z"/>
<path class="st0" d="M166.6,124.2c0,0,0.1,0,0.1-0.1l0.1,0L166.6,124.2z"/>
<path class="st0" d="M166.7,124.1L166.7,124.1L166.7,124.1L166.7,124.1z"/>
<path class="st0" d="M186.6,54.4c1.1,1.1,2.7,1.6,2.9,3.5C188.9,56.4,186.9,56.1,186.6,54.4z"/>
<path class="st0" d="M184.7,58.4c-1.4,0.2-1.5-0.8-2.3-2C183.5,56.7,184.3,57.4,184.7,58.4L184.7,58.4z"/>
<path class="st0" d="M203.9,80.2c-0.8-1.5-1.3-3.1-1.6-4.7l0,0.1C203.8,76.6,204.4,78.5,203.9,80.2L203.9,80.2z"/>
<path class="st0" d="M202.4,75.5c-0.9-0.8-1.3-2-1.1-3.2C202.1,73.5,202.8,74.4,202.4,75.5L202.4,75.5z"/>
<path class="st0" d="M187.3,108.3c-0.4,1.1-1.2,2.1-2.4,2.5C185.9,109.6,186.1,108.6,187.3,108.3z"/>
<path class="st0" d="M200.2,90.5l-1,7.8l0,0C198.7,95.6,199.7,93.1,200.2,90.5z"/>
<path class="st0" d="M199.2,98.6L199.2,98.6L199.2,98.6L199.2,98.6L199.2,98.6L199.2,98.6c0-0.1,0-0.2,0-0.3L199.2,98.6z"/>
<path class="st0" d="M125.2,66.4c-0.5,0.8-1.1,1-2.4,0.3C124,66.7,124.5,65.8,125.2,66.4z"/>
<path class="st0" d="M164.2,65.7c-1.6,0-2-1.5-2.9-2.3C162.5,63.7,163.6,64.6,164.2,65.7L164.2,65.7z"/>
<path class="st0" d="M164.5,63c1.1,0,1.3,1.2,2.1,1.6l-0.1-0.1C164.8,65.3,164.8,63.9,164.5,63L164.5,63z"/>
<path class="st0" d="M164.6,62.9c-1,0.2-1.4-0.5-2-1.1c0,0,0,0,0.1,0C163.5,61.6,164.3,62.2,164.6,62.9L164.6,62.9z"/>
<path class="st0" d="M177.8,107.9l-0.8-0.4c0.7-0.7,1.6-1.1,2.6-1.3C178.9,106.9,178.4,107.4,177.8,107.9z"/>
<path class="st0" d="M179.8,108.7l-0.8-0.4c0.3-0.2,0.6-0.4,0.9-0.7l0.5,0.6L179.8,108.7z"/>
<path class="st0" d="M196.5,65.2c-0.9-1-2-2-2.1-3.5C195.2,62.8,196.9,63.4,196.5,65.2L196.5,65.2z"/>
<path class="st0" d="M194.5,66c-0.4-0.7-1.3-1.1-1-2.6C194,64.4,195.3,64.7,194.5,66z"/>
<path class="st0" d="M202.3,106.9c0-2.1,1.4-3.1,1.9-4.6C204.4,103.9,203.5,105.2,202.3,106.9z"/>
<path class="st0" d="M134.2,58.5L134.2,58.5L134.2,58.5L134.2,58.5c0,0,0.1,0.1,0.1,0.1l0,0l0,0l0,0L134.2,58.5z"/>
<path class="st0" d="M129.2,60.3c1.7-0.7,3-2.5,5.1-1.8l0,0l-0.1,0C132.5,59.3,131,60.4,129.2,60.3z"/>
<path class="st0" d="M131.3,61.8c0.7-1.3,2-1.4,3.2-1.1L131.3,61.8z"/>
<path class="st0" d="M158.2,116.9L158.2,116.9L158.2,116.9L158.2,116.9z"/>
<path class="st0" d="M186.1,73c0.7,1,1.6,1.7,1.7,2.3L186.1,73z"/>
<path class="st0" d="M183.5,73.1c0.6,0.6,1.2,1.2,1.8,1.8c-1.5,0.1-1.8-0.7-2.3-1.5C183.3,73.2,183.5,73,183.5,73.1z"/>
<path class="st0" d="M119.1,62.6l0.2,0.1l0,0l0,0l0,0L119.1,62.6z"/>
<path class="st0" d="M119.2,62.7L119.2,62.7l-0.2,0l0,0l-3.5,0.6C117,61.9,118.1,62.4,119.2,62.7z"/>
<path class="st0" d="M136.7,70c-1.3,0.5-2.4,1.4-4.4,0.8C134.1,70.5,135.3,69.3,136.7,70L136.7,70z"/>
<path class="st0" d="M184,101.7c0.2-1.8,0.5-3.5,0.7-5.3c-0.1,1.7,0.4,3.6-0.7,5.2L184,101.7z"/>
<path class="st0" d="M182.5,100.9c0.2-1.6,0.4-3.2,0.6-4.8C182.9,97.7,183.6,99.4,182.5,100.9L182.5,100.9z"/>
<path class="st0" d="M172.2,78.9c-1-0.3-1.8-0.8-1.5-2.2L172.2,78.9z"/>
<path class="st0" d="M150.6,54L150.6,54L150.6,54C150.7,54,150.6,54,150.6,54L150.6,54L150.6,54z"/>
<path class="st0" d="M146.8,54.9c1.5-0.7,2.5-1.5,3.7-0.9l0,0c0,0-0.1,0-0.1,0C149.4,54.8,148.1,55.1,146.8,54.9z"/>
<path class="st0" d="M152,60.9c-1,0.7-1.9,0-2.8-0.1C150.1,60.5,151.1,60.6,152,60.9L152,60.9z"/>
<path class="st0" d="M143.2,68.2c1.9-0.5,3.7-1.2,5.9-0.2L143.2,68.2z"/>
<path class="st0" d="M147.4,70.2L147.4,70.2C147.3,70.1,147.4,70.2,147.4,70.2L147.4,70.2L147.4,70.2L147.4,70.2z"/>
<path class="st0" d="M144.3,69.6c1,0,2.1-0.3,2.9,0.5c0,0,0.1,0,0.1,0l0,0C146.3,70.2,145.2,70,144.3,69.6z"/>
<path class="st0" d="M179.8,77.9c0.8,1,1.7,1.6,1.6,2.9C180.8,80,179.6,79.5,179.8,77.9z"/>
<path class="st0" d="M183.8,80.8c-0.7-0.5-1.1-1.2-1.3-2C183.7,79.3,184.2,79.8,183.8,80.8L183.8,80.8z"/>
<path class="st0" d="M110.9,71.1c-1,0.9-2.5,0.9-3.6,0.1C108.8,71.4,109.8,70.4,110.9,71.1L110.9,71.1z"/>
<path class="st0" d="M100.4,75c0.5-0.8,1.1-1,2.4-0.3C101.7,74.6,101.2,75.5,100.4,75z"/>
<path class="st0" d="M172.5,93.6c-0.1,1.2,0.2,2.1-0.6,2.8c0,0.1,0,0.1,0,0.1l0,0C171.7,95.5,171.9,94.5,172.5,93.6z"/>
<path class="st0" d="M171.9,96.6L171.9,96.6L171.9,96.6L171.9,96.6L171.9,96.6z"/>
<path class="st0" d="M165.7,102.7c0.6-0.4,1.1-0.9,1.6-1.5l0.7,2l0,0c-0.1,0.1-0.1,0.2-0.2,0.3L165.7,102.7z"/>
<path class="st6" d="M168.4,103.8c0,0.1-0.1,0.1-0.1,0.2l-0.1-0.3L168.4,103.8z"/>
<path class="st6" d="M158.2,116.8l0.1,0.1l-0.1,0L158.2,116.8z"/>
<path class="st6" d="M166.5,124.2c0,0,0.1,0,0.1-0.1l0.1,0.1l0,0L166.5,124.2z"/>
<path class="st6" d="M174,127.3l0.1,0.1l0,0L174,127.3z"/>
<path class="st6" d="M178,130.7L178,130.7L178,130.7z"/>
</svg>
